<svg xmlns="http://www.w3.org/2000/svg" viewBox="0 0 345 345">
  <path fill="#F5B554" d="M9 30L22 14L56 5L300 6L314 12L333 22L339 48L336 264H9V30Z"/>
  <path fill="#D58141" d="M9 315L22 331L56 340L300 339L314 333L333 323L339 297L336 242H9V315Z"/>
  <path fill="#3B292F" d="M308 34H31V317H308V34Z"/>
  <path fill="#533C40" d="M297 57H42V167H297V57ZM288 45H52V169H288V45Z"/>
  <path fill="#AC4C3F" d="M9 37H0V295H9V37ZM9 289H0V308H9V289ZM19 19H9V37H19V19ZM19 308H9V326H19V308ZM37 9H19V19H37V9ZM37 326H19V336H37V326ZM33 36H23V309H33V36ZM306 26H33V36H306V26ZM308 309H33V319H308V309ZM56 0H37V9H56V0ZM301 0H37V9H301V0ZM292 336H37V345H292V336ZM308 336H289V345H308V336ZM308 0H298V9H308V0ZM315 36H306V309H315V36ZM326 9H308V19H326V9ZM326 326H308V336H326V326ZM336 19H326V37H336V19ZM336 308H326V326H336V308ZM345 37H336V56H345V37ZM345 50H336V301H345V50ZM345 298H336V308H345V298Z"/>
  <path fill="#C9443E" d="M97 95H82V142H97V95ZM97 172H82V249H97V172ZM112 111H97V188H112V111ZM112 249H97V280H112V249ZM128 49H112V65H128V49ZM128 95H112V111H128V95ZM128 126H112V157H128V126ZM143 280H112V295H143V280ZM158 142H128V157H158V142ZM158 65H143V95H158V65ZM158 111H143V142H158V111ZM174 80H158V142H174V80ZM189 80H158V95H189V80ZM189 80H174V111H189V80ZM205 95H174V111H205V95ZM205 95H189V126H205V95ZM220 111H189V126H220V111ZM220 111H205V142H220V111ZM235 126H205V142H235V126ZM235 126H220V172H235V126ZM235 265H220V295H235V265ZM251 265H220V280H251V265ZM251 157H235V203H251V157ZM266 188H251V265H266V188Z"/>
  <path fill="#DC653D" d="M112 188H97V249H112V188ZM128 157H112V234H128V157ZM189 157H112V172H189V157ZM220 142H158V157H220V142ZM189 111H174V142H189V111ZM205 126H189V142H205V126ZM220 157H205V188H220V157ZM235 172H220V218H235V172ZM251 203H235V265H251V203Z"/>
  <path fill="#EF9D5C" d="M128 234H112V280H128V234ZM143 172H128V280H143V172ZM205 172H128V188H205V172ZM158 172H143V295H158V172ZM220 188H143V203H220V188ZM174 188H158V295H174V188ZM220 203H158V218H220V203ZM189 203H174V295H189V203ZM235 218H174V234H235V218ZM205 157H189V172H205V157ZM205 218H189V295H205V218ZM235 234H189V249H235V234ZM220 234H205V295H220V234ZM235 249H205V265H235V249Z"/>
  <path fill="#323232" d="M129 202H112V219H129V202ZM204 188H128V204H204V188ZM143 203H128V219H143V203ZM158 265H143V280H158V265ZM174 249H158V265H174V249ZM235 234H189V249H235V234Z"/>
  <path fill="#524C50" d="M113 202H97V211H113V202ZM112 211H97V226H112V211ZM128 218H112V234H128V218ZM235 280H112V295H235V280ZM143 219H128V249H143V219ZM174 203H143V249H174V203ZM220 203H143V219H220V203ZM250 219H158V234H250V219ZM204 265H158V280H204V265ZM189 219H174V265H189V219Z"/>
</svg>
